<svg width="40" height="48" fill="none" xmlns="http://www.w3.org/2000/svg"><path d="M38 47.5H2A1.5 1.5 0 01.5 46V2A1.5 1.5 0 012 .5h26.287L39.5 12.2V46a1.5 1.5 0 01-1.5 1.5z" fill="#EEF3FF" stroke="#555"/><path d="M12.714 25.78c0 .439-.038.863-.112 1.274-.075.41-.229.78-.462 1.106-.224.327-.556.588-.994.784-.43.196-1.004.294-1.722.294-.532 0-.985-.08-1.358-.238a2.628 2.628 0 01-.924-.672c-.243-.29-.42-.63-.532-1.022a4.622 4.622 0 01-.168-1.274V25.5h1.75v.518c0 .57.093 1.013.28 1.33.196.308.56.462 1.092.462.28 0 .508-.042.686-.126a.983.983 0 00.434-.364c.112-.168.186-.373.224-.616.037-.243.056-.518.056-.826v-6.874h1.75v6.776zm2.13-6.776h4.41c.709 0 1.287.103 1.735.308.448.205.794.462 1.036.77.243.308.406.644.49 1.008.094.364.14.7.14 1.008 0 .308-.046.644-.14 1.008a2.541 2.541 0 01-.49.994c-.242.308-.588.565-1.036.77-.448.196-1.026.294-1.736.294h-2.66V29h-1.75v-9.996zm1.75 4.732h2.561c.196 0 .397-.028.602-.084.206-.056.392-.145.56-.266.178-.13.318-.299.42-.504.112-.215.168-.48.168-.798 0-.327-.046-.597-.14-.812a1.24 1.24 0 00-.378-.504 1.3 1.3 0 00-.546-.266 2.962 2.962 0 00-.658-.07h-2.59v3.304zM32.903 29h-1.12l-.267-1.176c-.466.532-.933.9-1.4 1.106-.466.205-1.003.308-1.61.308-.747 0-1.419-.135-2.016-.406a4.518 4.518 0 01-1.498-1.134 5.14 5.14 0 01-.952-1.666 6.293 6.293 0 01-.322-2.03c0-.71.107-1.381.322-2.016a5.14 5.14 0 01.952-1.666c.41-.476.91-.854 1.498-1.134.598-.28 1.27-.42 2.016-.42.541 0 1.055.075 1.54.224.495.14.933.355 1.316.644.383.28.7.635.952 1.064.252.43.41.924.476 1.484h-1.708a2.075 2.075 0 00-.308-.854 2.063 2.063 0 00-.574-.63 2.544 2.544 0 00-.784-.378 3.248 3.248 0 00-.91-.126c-.532 0-.994.107-1.386.322a2.698 2.698 0 00-.938.868c-.242.355-.424.76-.546 1.218a5.864 5.864 0 00-.168 1.4c0 .476.056.943.168 1.4.122.457.303.868.546 1.232.243.355.555.64.938.854.392.215.854.322 1.386.322.448.01.845-.047 1.19-.168.346-.13.635-.313.868-.546a2.31 2.31 0 00.546-.882c.122-.345.187-.728.196-1.148h-2.66v-1.33h4.256V29z" fill="#555"/><path d="M38.5 11.5L29 2v8.5a1 1 0 001 1h8.5z" fill="#BCCFFF"/></svg>